<svg xmlns="http://www.w3.org/2000/svg" version="1.1" xmlns:xlink="http://www.w3.org/1999/xlink" width="1500" height="1500" viewBox="0 0 1500 1500"><rect width="1500" height="1500" x="0" y="0" id="background" stroke="transparent" fill="#000000"></rect><svg xml:space="preserve" width="1000" height="1000" data-version="2" data-id="lg_hdu3AGU9Gt6KmdPeZ7" viewBox="0 0 377 135" x="250" y="250"><rect width="100%" height="100%" fill="transparent"></rect><g transform="translate(252.57 71.8)"><filter id="a" width="140%" height="140%" x="-20%" y="-20%"><feGaussianBlur in="SourceAlpha"></feGaussianBlur><feOffset result="oBlur"></feOffset><feFlood flood-color="#FFF" flood-opacity="1"></feFlood><feComposite in2="oBlur" operator="in"></feComposite><feMerge><feMergeNode></feMergeNode><feMergeNode in="SourceGraphic"></feMergeNode></feMerge></filter><g filter="url(#a)"><path fill="none" stroke="#9c9c9c" d="M-110.23 3.965q-1.82 0-3.35-.85-1.53-.84-2.63-2.27-.98-1.37-1.76-3.48t-1.17-4.39q-.78-3.83-1.04-10.07-.06-1.5-.06-5.14v-4.09q.06-1.76.06-3.64 0-3.84.46-6.05-.2-.97-.2-2.01 0-3.9 2.93-6.31 2.92-2.4 7.41-2.4 1.69 0 3.12.91 1.43.91 1.43 2.27 0 .65-.52 1.04t-1.3.39q-.65 0-1.4-.19-.75-.2-.94-.59h-.85v-.13q-2.4 0-4.03 1.04-1.17.85-1.82 2.8-.26.71-.39 1.82-.13 1.1-.13 2.01-.06.52-.06 2.08l.13 2.28.06 2.21q0 .97-.26 2.27-.32 1.63-.32 2.28v1.56q0 2.53.19 6.95.07 3.71.85 7.41.58 3.45 2.21 5.85 1.56 2.47 4.22 2.47 1.11 0 2.73-1.17 1.76-1.17 2.47-1.17.91 0 1.89.98 0 2.4-1.82 3.7-1.69 1.17-4.03 1.5-1.3.13-2.08.13Zm24.96-.39q-1.24 0-2.41-1.76v-.19q-.19-3.45-1.17-7.67-.97-4.23-2.86-10.21-1.43-4.48-2.4-8.06v25.61q0 1.04-.36 1.53t-1.4.49q-.78 0-1.23-.49-.46-.49-.46-1.27v-.52l.13-19.11q.13-8.45.13-19.04v-8q0-.78.33-1.07.32-.29 1.36-.29 1.63 0 2.99.61 1.37.62 2.34 1.73 2.02 2.27 2.6 5.46.26 1.3.26 2.99 0 .97-.16 2.14-.16 1.17-.23 1.5-.13.65-.58 1.95-.46 1.3-.59 1.69l-.78 1.82-.65 1.69q.07 2.34.82 5.91.74 3.58 1.65 6.63.65 2.15 2.34 7.15l1.89 5.72v.13q0 1.11-.2 1.89-.19 1.04-1.36 1.04Zm-8.97-30.81q.91-.91 2.21-2.54l.97-5.59q.07-.32.07-.91 0-1.88-.72-4.35-.39-1.17-1-1.99-.62-.81-1.27-.87l-.13 6.5q-.2 4.35-.2 6.76 0 2.27.07 2.99Zm19.43 30.55q-1.23 0-2.14-.33-1.11-.32-1.11-1.82v-37.76q0-1.11-.39-3.32-.45-2.01-.45-3.31v-.2q1.1-1.82 1.62-2.34.91 0 2.41-.26 1.36-.26 2.4-.26 1.04 0 2.02.62.97.62.97 1.46 0 1.95-2.99 1.95h-.91q-.39-.06-.91-.06-.58 0-.71.06 0 2.21.26 5.33l.13 1.82.13 3.58q0 1.23-.2 3.77l-.13 3.64.91-.2q1.3-.39 2.15-.39.71 0 1.3.55.58.56.58 1.27 0 .78-.48 1.4-.49.62-1.21.62l-.78-.07h-.84q-.98 0-1.37.46v20.08l3.64-.19q3.71 0 3.71 1.69v.26q-.39.78-1.43 1.26-1.04.49-2.02.62l-2.14.07zm27.24-.39q-1.04 0-1.53-.39t-.49-1.3v-8.52q-.84-.58-3.18-1.04-2.34-.45-4.42-.58-.72 1.36-1.04 3.31l-.26 1.3q-.07.46-.39 2.02-.33 1.56-.72 2.69-.39 1.14-.78 1.79-2.47 0-2.86-1.3.72-1.04 1.63-6.11l2.14-11.89q1.43-8.45 2.64-14.43 1.2-5.98 2.56-10.01 1.5-4.49 2.86-4.49 1.37 0 2.08.52 0 2.6 1.24 12.55 1.3 9.75 1.3 13.32 0 3.45.71 9.88.65 6.57.65 10.47 0 2.21-2.14 2.21Zm-3.38-13.98q.52 0 1.3-.19-.2-2.86-.65-7.09-1.5-14.69-1.5-18v-.52q-.65.65-1.78 5.88-1.14 5.23-2.12 11.21-.97 5.98-1.04 7.93 2.73.78 5.79.78Zm18.13 14.43q-.97 0-1.52-.94-.56-.94-.56-2.31 0-2.14.26-5.26l.13-1.69.13-3.45q0-2.27-.45-10.14-.46-7.86-.46-10.14 0-.19.04-.75.03-.55.03-1.72.06-1.3.06-3.18 0-4.75-.65-6.05-.39 0-1.69.2l-1.82.13q-.84 0-1.49-.49t-.65-1.27q0-.78 1.56-1.36 2.27-.78 7.73-1.11 2.21-.13 2.67-.13.78 0 1.43.52.65.52.65 1.3t-.55 1.27q-.56.49-1.4.49l-1.17-.07q-.52-.06-1.17-.06h-.65q.45 4.42.45 7.99l-.06 4.16q-.07 1.89-.07 4.23 0 3.12.26 7.47.33 5.4.33 7.48 0 2.47.26 5.85.26 3.44.26 5.85 0 3.18-1.89 3.18Zm16.25-.52q-5.59 0-5.59-1.95 0-1.56 1.95-1.56h.78q.26.07.59.07.52 0 .75-.33.22-.32.22-1.17 0-5.52-.65-15.08-.58-9.94-.58-15.01 0-1.82.06-3.32l.07-3.31q0-2.15-.2-3.58-.71.26-1.49.26-1.5 0-1.5-1.56 0-.78.95-1.36.94-.59 2.43-.85 2.73-.45 4.62-.45.78 0 1.33.52t.55 1.23q0 .72-.42 1.24t-1.07.52q-.39 0-.65-.07h-.52q-.65 0-.94.29-.3.3-.3 1.08 0 6.89.85 18.98.78 12.67.78 19.04v2.47q.45-.06 1.3-.06 2.73 0 2.73 2.27v.39l-1.63 1.11q-.06 0-.39.03-.32.03-1.3.03-2.21.13-2.73.13Zm20.09 1.17q-.91 0-1.5-.71-1.69-7.02-4.61-25.42-3.25-19.63-3.97-23.33.26-1.24 1.76-1.24 1.1 0 2.73 8.32 1.69 8.39 3.31 18.98L3-7.865q1.04-7.8 1.62-11.7 1.24-8.97 1.82-14.86.59-5.88.59-11.14.97-1.3 2.34-1.3l1.36.71-.97 8.78q-.33 4.03-1.63 14.62l-.58 4.29q-.72 5.72-1.43 10.79-.98 7.35-1.82 10.21-.39 1.49-.78 1.49Zm18.98-.71q-1.24 0-2.15-.33-1.1-.32-1.1-1.82v-37.76q0-1.11-.39-3.32-.46-2.01-.46-3.31v-.2q1.11-1.82 1.63-2.34.91 0 2.4-.26 1.37-.26 2.41-.26t2.01.62q.98.62.98 1.46 0 1.95-2.99 1.95h-.91q-.39-.06-.91-.06-.59 0-.72.06 0 2.21.26 5.33l.13 1.82.13 3.58q0 1.23-.19 3.77l-.13 3.64.91-.2q1.3-.39 2.14-.39.72 0 1.3.55.59.56.59 1.27 0 .78-.49 1.4-.49.62-1.2.62l-.78-.07h-.85q-.97 0-1.36.46v20.08l3.64-.19q3.7 0 3.7 1.69v.26q-.39.78-1.43 1.26-1.04.49-2.01.62l-2.15.07zm41.53 1.1q-.39 0-.78-.13-.32-.06-.71-.06-1.76-9.95-3.51-16.64-1.76-6.7-4.42-12.61l-1.37 2.53q-.58 1.11-.65 1.95-.19 1.95-.19 2.86 0 1.95.19 5.98.2 3.97.2 6.05v5.33q0 3.44-2.21 3.44-1.89 0-1.89-3.64 0-2.86.39-8.77.46-5.46.46-8.71l.06-5.59v-6.76q0-3.58-.45-7.48-.46-4.03-.46-6.11 0-.84.52-1.43.52-.58 1.3-.58 2.41 0 2.41 5.26l-.26 13.33 1.23-3.19q2.15-5.46 4.42-10.79 1.3-2.92 2.34-4.61 1.11-1.76 1.76-1.76.71 0 1.27.49.55.49.55 1.2 0 .65-3.51 8.06-3.45 7.09-4.03 9.43v1.17q.97 2.47 5.2 15.82 4.22 13.36 4.22 14.14 0 .78-.61 1.3-.62.52-1.47.52Zm11.57-1.1q-1.23 0-2.14-.33-1.11-.32-1.11-1.82v-37.76q0-1.11-.39-3.32-.45-2.01-.45-3.31v-.2q1.1-1.82 1.62-2.34.91 0 2.41-.26 1.36-.26 2.4-.26 1.04 0 2.02.62.97.62.97 1.46 0 1.95-2.99 1.95h-.91q-.39-.06-.91-.06-.58 0-.71.06 0 2.21.26 5.33l.13 1.82.13 3.58q0 1.23-.2 3.77l-.13 3.64.91-.2q1.3-.39 2.15-.39.71 0 1.3.55.58.56.58 1.27 0 .78-.48 1.4-.49.62-1.21.62l-.78-.07h-.84q-.98 0-1.37.46v20.08l3.64-.19q3.71 0 3.71 1.69v.26q-.39.78-1.43 1.26-1.04.49-2.02.62l-2.14.07zm18.98.39q-.65 0-1.13-.46-.49-.45-.49-1.1l.13-6.31q.19-4.22.19-6.3 0-1.89-.58-5.59-.65-3.64-.65-5.66 0-2.47-.72-5.65-.71-3.19-1.82-6.11-1.04-2.8-1.75-6.02-.72-3.21-.72-5.62 0-.45.52-.78.52-.32 1.11-.32.71 0 1.36 1.49.78 1.69 1.5 4.75.71 3.05.84 3.64l.85 4.48.65 2.86q.19-1.04.32-2.73.39-5.39.98-8.97.45-2.47 1.04-3.77.65-1.43 1.56-1.43 1.75 0 1.75.65 0 3.71-1.56 10.92-1.56 7.22-1.56 10.99l-.13 1.04q-.13.97-.06 1.17v1.04q0 2.79.19 8.58l.13 8.64.13 1.5.13 1.56v1.62q0 .78-.65 1.33-.65.56-1.56.56Zm16.32.65q-2.34 0-4.03-.85-1.04-.58-1.04-1.36 0-.78.39-1.27t1.1-.49q.65 0 1.89.52 1.36.52 1.69.52 1.23 0 2.24-1.07 1.01-1.07 1.59-2.83 1.17-3.25 1.17-5.85 0-2.79-.87-5.88-.88-3.09-2.38-6.01l-1.04-2.08q-1.62-3.25-2.5-5.14-.88-1.88-1.53-4.09-.97-3.12-.97-6.05 0-2.34.81-4.42t2.44-3.51q1.62-1.56 4.03-1.56 1.17 0 2.27.68 1.11.69 1.56 1.73l-1.1 1.36q-1.69 0-2.54-.65-1.17.13-2.04 1.14-.88 1.01-1.34 2.31-.39 1.23-.39 2.47 0 2.47.69 5.03.68 2.57 1.78 4.85l4.55 9.1q1.11 2.34 1.76 5.26.65 2.93.65 5.85 0 4.29-2.08 8.06-1.11 1.95-2.86 3.09-1.76 1.14-3.9 1.14Z" paint-order="stroke"></path><path fill="none" stroke="#9c9c9c" stroke-width=".66" d="M-77.75 46.225q-.47 0-.75-.41t-.28-1.01l.09-7.22q.13-5.25.13-8.13 0-10.02-1.12-15.35.64-.99 1.63-.99 1.59 0 2.91.71 1.31.71 2.17 1.91 1.67 2.5 1.67 5.59 0 3.23-1.37 5.77-1.38 2.53-4 3.95l.08 4.35.09 2.27q.04.74.04 2.11.13 2.88.13 4.69 0 .82-.34 1.29-.35.47-1.08.47Zm.99-17.24q1.68-1.59 2.48-3.33.79-1.75.79-3.94v-.04q0-.99-.21-2.5-.13-.51-.48-1.03-.34-.51-.38-.6-.31-.43-1.6-1.33l-1.11-.82q0 2.19.25 6.79zm12.64 16.98q-3.69 0-3.69-1.29 0-1.03 1.29-1.03h.51q.17.04.39.04.34 0 .49-.21.15-.22.15-.77 0-3.66-.43-9.98-.38-6.58-.38-9.93 0-1.21.04-2.2l.04-2.19q0-1.42-.13-2.36-.47.17-.98.17-.99 0-.99-1.03 0-.52.62-.91.62-.38 1.61-.56 1.81-.3 3.06-.3.51 0 .88.35.36.34.36.81 0 .48-.28.82-.28.34-.71.34-.25 0-.43-.04h-.34q-.43 0-.62.2-.2.19-.2.7 0 4.56.56 12.56.52 8.39.52 12.6v1.63q.3-.04.86-.04 1.8 0 1.8 1.51v.25l-1.07.73q-.04 0-.26.03-.21.02-.86.02-1.46.08-1.81.08Zm16.86.05q-.69 0-1.01-.26-.32-.26-.32-.86v-5.63q-.56-.39-2.11-.69-1.55-.3-2.92-.39-.48.9-.69 2.19l-.17.86q-.05.3-.26 1.34-.22 1.03-.47 1.78-.26.75-.52 1.18-1.63 0-1.89-.86.47-.68 1.07-4.04l1.42-7.87q.95-5.59 1.74-9.54.8-3.96 1.7-6.63.99-2.96 1.89-2.96.91 0 1.38.34 0 1.72.82 8.3.86 6.45.86 8.82 0 2.27.47 6.53.43 4.34.43 6.92 0 1.47-1.42 1.47Zm-2.24-9.25q.35 0 .86-.13-.12-1.89-.43-4.68-.98-9.72-.98-11.92v-.34q-.43.43-1.19 3.89-.75 3.46-1.39 7.42-.65 3.96-.69 5.25 1.8.51 3.82.51Zm19.4 9.89q-.86 0-3.53-8.86-3.01-10.36-5.2-19.05v14.11q0 1.8.34 6.15.3 4.73.3 6.1 0 .39-.47.67t-1.07.28q-.91 0-.91-.69l.09-1.25q.08-1.37.08-1.8 0-2.28-.25-7.23-.26-5.03-.26-6.1v-5.51q0-1.33.13-3.95.17-2.28.17-3.96v-.26q0-2.15.95-2.15.55 0 1.41 1.9 1.42 3.09 3.62 11.09 1.24 4.64 2.92 11.95l.69 2.97.04.22q0-4.17.09-7.49l.08-7.48v-12.73q.18-1.07 1.38-1.07 1.16 0 1.16 1.68v.25q-.26.52-.26 1.25 0 2.62-.13 7.91-.13 5.34-.13 8v13.12q0 .68-.36 1.31-.37.62-.88.62Zm12.73.56q-1.17 0-2.11-.77-.95-.78-1.64-2.11-1.24-2.32-1.84-6.36-.43-2.8-.65-6.45l-.04-2.28v-2.33q-.05-1.11-.05-2.7 0-2.58.22-4.56.17-2.07.86-4.09.69-1.76 1.98-2.49.77-.35 1.55-.35 2.27 0 3.61 1.81 1.46 2.02 1.93 4.52.69 3.01.78 5.76.17 3.05.17 5.76v2.45q0 .73-.22 2.75-.17 1.59-.17 2.71v.17q-.26 1.21-.26 2.84 0 1.21-.51 2.5-.52 1.29-1.46 2.19-.95 1.03-2.15 1.03Zm.08-2.36q.86 0 1.46-1.6.52-1.41.76-3.46.23-2.04.4-4.62.09-1.12.09-2.88l-.04-3.96q-.09-2.32-.52-5.8-.34-2.97-1.29-5.25-.43-1.07-1.07-1.67-.65-.61-1.38-.61-1.07 0-1.59 1.68-.65 1.76-.86 3.87-.26 2.28-.3 4.34l-.04 1.42q-.05.6-.05 1.64v.17q0 2.88.6 7.09.69 5.72 2.03 8.13.86 1.51 1.8 1.51Zm19.87 2.1q-1.55 0-2.67-.56-.69-.38-.69-.9t.26-.84q.26-.32.73-.32.43 0 1.25.34.9.35 1.12.35.81 0 1.48-.71.67-.71 1.05-1.87.78-2.15.78-3.87 0-1.85-.58-3.89-.58-2.05-1.57-3.98l-.69-1.38q-1.07-2.15-1.65-3.39-.59-1.25-1.02-2.71-.64-2.07-.64-4 0-1.55.54-2.93.53-1.37 1.61-2.32 1.07-1.03 2.67-1.03.77 0 1.5.45t1.03 1.14l-.73.9q-1.12 0-1.68-.43-.77.09-1.35.76-.58.66-.88 1.52-.26.82-.26 1.64 0 1.63.45 3.33.45 1.7 1.18 3.2l3.01 6.02q.74 1.55 1.17 3.49.43 1.93.43 3.87 0 2.83-1.38 5.33-.73 1.29-1.89 2.04t-2.58.75Zm13.97-.64q-.64 0-1.01-.63-.36-.62-.36-1.52 0-1.42.17-3.49l.08-1.11.09-2.28q0-1.51-.3-6.71t-.3-6.71q0-.13.02-.49.02-.37.02-1.14.04-.86.04-2.11 0-3.14-.43-4-.25 0-1.11.13l-1.21.09q-.56 0-.99-.33-.43-.32-.43-.83 0-.52 1.04-.91 1.5-.51 5.11-.73 1.46-.08 1.77-.08.51 0 .94.34.43.34.43.86t-.36.84q-.37.32-.93.32l-.77-.04q-.35-.05-.78-.05h-.43q.3 2.93.3 5.29l-.04 2.76q-.04 1.24-.04 2.79 0 2.06.17 4.95.22 3.56.22 4.94 0 1.63.17 3.87.17 2.28.17 3.87 0 2.11-1.25 2.11Zm15.53.47q-2.67 0-4.22-2.32-1.68-2.37-2.36-5.81-.78-3.65-.99-7.82-.22-3.79-.22-8.22v-3.56q.05-1.51.05-3.19-.35-.34-.35-.86 0-.51.39-.92.39-.41.86-.41 1.55 0 1.55 3.05 0 1.98.21 7.49.22 5.5.22 7.48.21.56.41 2.23.19 1.68.19 2.76 0 .94.3 2.34t.86 2.82q.56 1.5 1.46 2.47.9.97 1.89.97.61 0 1.01-.39.41-.39.54-1.12.26-1.2.26-2.36v-8.39q0-1.59-.3-4.04-.26-2.71-.26-4.09v-.3q0-.69-.04-1.24l-.05-1.25q0-1.21-.12-3.66-.18-2.19-.18-3.69 0-.48.5-.82.49-.35 1.09-.35l1.08.99v.73q0 .52-.17 1.25-.17 1.21-.17 1.38 0 3.91.43 10.79.38 7.22.38 11.22 0 2.15-.43 3.79-.26.99-.71 1.59-.45.6-1.22 1.03-.73.43-1.89.43Zm11.95-.69q-.86 0-1.48-.38-.63-.39-.63-1.08.95-.95.95-5.03 0-2.45-.39-7.14-.43-4.47-.43-7.05l.09-2.37q.04-1.03.04-2.36 0-1.2-.43-3.05-.52-1.94-.52-2.71 0-1.51 3.32-1.51h.64q2.32 0 4.04 1.42 1.38 1.21 2.32 3.48.65 1.55 1.12 4.3.26 2.41.26 3.79v3.4q-.09.17-.09.34 0 .34.05.52.04.17.04.43 0 1.37-.41 3.29-.41 1.91-1.18 3.89-1.94 4.73-4.34 6.7-1.42 1.12-2.97 1.12Zm.9-2.49q1.59-.99 2.8-2.86 1.2-1.87 1.85-4.15 1.16-4.21 1.16-8.51 0-2.33-.43-5.08-.48-2.66-2.02-4.81-.73-1.04-1.85-1.62-1.12-.58-2.54-.58v.05q0 3.87.52 11.69.51 7.78.51 11.78zm15.91 2.36q-3.7 0-3.7-1.29 0-1.03 1.29-1.03h.52q.17.04.39.04.34 0 .49-.21.15-.22.15-.77 0-3.66-.43-9.98-.38-6.58-.38-9.93 0-1.21.04-2.2l.04-2.19q0-1.42-.13-2.36-.47.17-.99.17-.99 0-.99-1.03 0-.52.63-.91.62-.38 1.61-.56 1.81-.3 3.05-.3.52 0 .89.35.36.34.36.81 0 .48-.28.82-.28.34-.71.34-.26 0-.43-.04h-.34q-.43 0-.63.2-.19.19-.19.7 0 4.56.56 12.56.52 8.39.52 12.6v1.63q.3-.04.86-.04 1.8 0 1.8 1.51v.25l-1.07.73q-.05 0-.26.03-.22.02-.86.02-1.46.08-1.81.08Zm13.98 1.25q-1.16 0-2.11-.77-.95-.78-1.63-2.11-1.25-2.32-1.85-6.36-.43-2.8-.65-6.45l-.04-2.28v-2.33q-.04-1.11-.04-2.7 0-2.58.21-4.56.17-2.07.86-4.09.69-1.76 1.98-2.49.77-.35 1.55-.35 2.28 0 3.61 1.81 1.46 2.02 1.93 4.52.69 3.01.78 5.76.17 3.05.17 5.76v2.45q0 .73-.21 2.75-.18 1.59-.18 2.71v.17q-.25 1.21-.25 2.84 0 1.21-.52 2.5t-1.46 2.19q-.95 1.03-2.15 1.03Zm.08-2.36q.86 0 1.47-1.6.51-1.41.75-3.46.23-2.04.41-4.62.08-1.12.08-2.88l-.04-3.96q-.09-2.32-.52-5.8-.34-2.97-1.29-5.25-.43-1.07-1.07-1.67-.65-.61-1.38-.61-1.07 0-1.59 1.68-.64 1.76-.86 3.87-.26 2.28-.3 4.34l-.04 1.42q-.05.6-.05 1.64v.17q0 2.88.61 7.09.68 5.72 2.02 8.13.86 1.51 1.8 1.51Z" paint-order="stroke"></path><path fill="#9c9c9c" d="M-110.23 3.965q-1.82 0-3.35-.85-1.53-.84-2.63-2.27-.98-1.37-1.76-3.48t-1.17-4.39q-.78-3.83-1.04-10.07-.06-1.5-.06-5.14v-4.09q.06-1.76.06-3.64 0-3.84.46-6.05-.2-.97-.2-2.01 0-3.9 2.93-6.31 2.92-2.4 7.41-2.4 1.69 0 3.12.91 1.43.91 1.43 2.27 0 .65-.52 1.04t-1.3.39q-.65 0-1.4-.19-.75-.2-.94-.59h-.85v-.13q-2.4 0-4.03 1.04-1.17.85-1.82 2.8-.26.71-.39 1.82-.13 1.1-.13 2.01-.06.52-.06 2.08l.13 2.28.06 2.21q0 .97-.26 2.27-.32 1.63-.32 2.28v1.56q0 2.53.19 6.95.07 3.71.85 7.41.58 3.45 2.21 5.85 1.56 2.47 4.22 2.47 1.11 0 2.73-1.17 1.76-1.17 2.47-1.17.91 0 1.89.98 0 2.4-1.82 3.7-1.69 1.17-4.03 1.5-1.3.13-2.08.13" paint-order="stroke"></path><rect width="17.94" height="50.7" x="-8.97" y="-25.35" fill="none" rx="0" ry="0" transform="translate(-110.77 -20.89)"></rect><path fill="#9c9c9c" d="M-85.27 3.575q-1.24 0-2.41-1.76v-.19q-.19-3.45-1.17-7.67-.97-4.23-2.86-10.21-1.43-4.48-2.4-8.06v25.61q0 1.04-.36 1.53t-1.4.49q-.78 0-1.23-.49-.46-.49-.46-1.27v-.52l.13-19.11q.13-8.45.13-19.04v-8q0-.78.33-1.07.32-.29 1.36-.29 1.63 0 2.99.61 1.37.62 2.34 1.73 2.02 2.27 2.6 5.46.26 1.3.26 2.99 0 .97-.16 2.14-.16 1.17-.23 1.5-.13.65-.58 1.95-.46 1.3-.59 1.69l-.78 1.82-.65 1.69q.07 2.34.82 5.91.74 3.58 1.65 6.63.65 2.15 2.34 7.15l1.89 5.72v.13q0 1.11-.2 1.89-.19 1.04-1.36 1.04m-8.97-30.81q.91-.91 2.21-2.54l.97-5.59q.07-.32.07-.91 0-1.88-.72-4.35-.39-1.17-1-1.99-.62-.81-1.27-.87l-.13 6.5q-.2 4.35-.2 6.76 0 2.27.07 2.99" paint-order="stroke"></path><rect width="13.85" height="50.05" x="-6.92" y="-25.02" fill="none" rx="0" ry="0" transform="translate(-90.14 -20.95)"></rect><path fill="#9c9c9c" d="M-74.81 3.315q-1.23 0-2.14-.33-1.11-.32-1.11-1.82v-37.76q0-1.11-.39-3.32-.45-2.01-.45-3.31v-.2q1.1-1.82 1.62-2.34.91 0 2.41-.26 1.36-.26 2.4-.26 1.04 0 2.02.62.97.62.97 1.46 0 1.95-2.99 1.95h-.91q-.39-.06-.91-.06-.58 0-.71.06 0 2.21.26 5.33l.13 1.82.13 3.58q0 1.23-.2 3.77l-.13 3.64.91-.2q1.3-.39 2.15-.39.71 0 1.3.55.58.56.58 1.27 0 .78-.48 1.4-.49.62-1.21.62l-.78-.07h-.84q-.98 0-1.37.46v20.08l3.64-.19q3.71 0 3.71 1.69v.26q-.39.78-1.43 1.26-1.04.49-2.02.62l-2.14.07z" paint-order="stroke"></path><rect width="11.7" height="49.6" x="-5.85" y="-24.8" fill="none" rx="0" ry="0" transform="translate(-72.55 -20.98)"></rect><path fill="#9c9c9c" d="M-47.57 2.925q-1.04 0-1.53-.39t-.49-1.3v-8.52q-.84-.58-3.18-1.04-2.34-.45-4.42-.58-.72 1.36-1.04 3.31l-.26 1.3q-.07.46-.39 2.02-.33 1.56-.72 2.69-.39 1.14-.78 1.79-2.47 0-2.86-1.3.72-1.04 1.63-6.11l2.14-11.89q1.43-8.45 2.64-14.43 1.2-5.98 2.56-10.01 1.5-4.49 2.86-4.49 1.37 0 2.08.52 0 2.6 1.24 12.55 1.3 9.75 1.3 13.32 0 3.45.71 9.88.65 6.57.65 10.47 0 2.21-2.14 2.21m-3.38-13.98q.52 0 1.3-.19-.2-2.86-.65-7.09-1.5-14.69-1.5-18v-.52q-.65.65-1.78 5.88-1.14 5.23-2.12 11.21-.97 5.98-1.04 7.93 2.73.78 5.79.78" paint-order="stroke"></path><rect width="17.81" height="48.95" x="-8.9" y="-24.48" fill="none" rx="0" ry="0" transform="translate(-53.84 -21.05)"></rect><path fill="#9c9c9c" d="M-32.82 3.375q-.97 0-1.52-.94-.56-.94-.56-2.31 0-2.14.26-5.26l.13-1.69.13-3.45q0-2.27-.45-10.14-.46-7.86-.46-10.14 0-.19.04-.75.03-.55.03-1.72.06-1.3.06-3.18 0-4.75-.65-6.05-.39 0-1.69.2l-1.82.13q-.84 0-1.49-.49t-.65-1.27q0-.78 1.56-1.36 2.27-.78 7.73-1.11 2.21-.13 2.67-.13.78 0 1.43.52.65.52.65 1.3t-.55 1.27q-.56.49-1.4.49l-1.17-.07q-.52-.06-1.17-.06h-.65q.45 4.42.45 7.99l-.06 4.16q-.07 1.89-.07 4.23 0 3.12.26 7.47.33 5.4.33 7.48 0 2.47.26 5.85.26 3.44.26 5.85 0 3.18-1.89 3.18" paint-order="stroke"></path><rect width="14.04" height="49.66" x="-7.02" y="-24.83" fill="none" rx="0" ry="0" transform="translate(-33.94 -20.95)"></rect><path fill="#9c9c9c" d="M-16.57 2.855q-5.59 0-5.59-1.95 0-1.56 1.95-1.56h.78q.26.07.59.07.52 0 .75-.33.22-.32.22-1.17 0-5.52-.65-15.08-.58-9.94-.58-15.01 0-1.82.06-3.32l.07-3.31q0-2.15-.2-3.58-.71.26-1.49.26-1.5 0-1.5-1.56 0-.78.95-1.36.94-.59 2.43-.85 2.73-.45 4.62-.45.78 0 1.33.52t.55 1.23q0 .72-.42 1.24t-1.07.52q-.39 0-.65-.07h-.52q-.65 0-.94.29-.3.3-.3 1.08 0 6.89.85 18.98.78 12.67.78 19.04v2.47q.45-.06 1.3-.06 2.73 0 2.73 2.27v.39l-1.63 1.11q-.06 0-.39.03-.32.03-1.3.03-2.21.13-2.73.13" paint-order="stroke"></path><rect width="11.64" height="49.2" x="-5.82" y="-24.6" fill="none" rx="0" ry="0" transform="translate(-15.84 -21.25)"></rect><path fill="#9c9c9c" d="M3.52 4.025q-.91 0-1.5-.71-1.69-7.02-4.61-25.42-3.25-19.63-3.97-23.33.26-1.24 1.76-1.24 1.1 0 2.73 8.32 1.69 8.39 3.31 18.98L3-7.865q1.04-7.8 1.62-11.7 1.24-8.97 1.82-14.86.59-5.88.59-11.14.97-1.3 2.34-1.3l1.36.71-.97 8.78q-.33 4.03-1.63 14.62l-.58 4.29q-.72 5.72-1.43 10.79-.98 7.35-1.82 10.21-.39 1.49-.78 1.49" paint-order="stroke"></path><rect width="17.29" height="50.89" x="-8.64" y="-25.45" fill="none" rx="0" ry="0" transform="translate(2.58 -20.92)"></rect><path fill="#9c9c9c" d="M22.5 3.315q-1.24 0-2.15-.33-1.1-.32-1.1-1.82v-37.76q0-1.11-.39-3.32-.46-2.01-.46-3.31v-.2q1.11-1.82 1.63-2.34.91 0 2.4-.26 1.37-.26 2.41-.26t2.01.62q.98.62.98 1.46 0 1.95-2.99 1.95h-.91q-.39-.06-.91-.06-.59 0-.72.06 0 2.21.26 5.33l.13 1.82.13 3.58q0 1.23-.19 3.77l-.13 3.64.91-.2q1.3-.39 2.14-.39.72 0 1.3.55.59.56.59 1.27 0 .78-.49 1.4-.49.62-1.2.62l-.78-.07h-.85q-.97 0-1.36.46v20.08l3.64-.19q3.7 0 3.7 1.69v.26q-.39.78-1.43 1.26-1.04.49-2.01.62l-2.15.07z" paint-order="stroke"></path><rect width="11.7" height="49.6" x="-5.85" y="-24.8" fill="none" rx="0" ry="0" transform="translate(24.75 -20.98)"></rect><path fill="#9c9c9c" d="M64.03 4.415q-.39 0-.78-.13-.32-.06-.71-.06-1.76-9.95-3.51-16.64-1.76-6.7-4.42-12.61l-1.37 2.53q-.58 1.11-.65 1.95-.19 1.95-.19 2.86 0 1.95.19 5.98.2 3.97.2 6.05v5.33q0 3.44-2.21 3.44-1.89 0-1.89-3.64 0-2.86.39-8.77.46-5.46.46-8.71l.06-5.59v-6.76q0-3.58-.45-7.48-.46-4.03-.46-6.11 0-.84.52-1.43.52-.58 1.3-.58 2.41 0 2.41 5.26l-.26 13.33 1.23-3.19q2.15-5.46 4.42-10.79 1.3-2.92 2.34-4.61 1.11-1.76 1.76-1.76.71 0 1.27.49.55.49.55 1.2 0 .65-3.51 8.06-3.45 7.09-4.03 9.43v1.17q.97 2.47 5.2 15.82 4.22 13.36 4.22 14.14 0 .78-.61 1.3-.62.52-1.47.52" paint-order="stroke"></path><rect width="17.42" height="52.13" x="-8.71" y="-26.07" fill="none" rx="0" ry="0" transform="translate(57.9 -21.15)"></rect><path fill="#9c9c9c" d="M75.6 3.315q-1.23 0-2.14-.33-1.11-.32-1.11-1.82v-37.76q0-1.11-.39-3.32-.45-2.01-.45-3.31v-.2q1.1-1.82 1.62-2.34.91 0 2.41-.26 1.36-.26 2.4-.26 1.04 0 2.02.62.97.62.97 1.46 0 1.95-2.99 1.95h-.91q-.39-.06-.91-.06-.58 0-.71.06 0 2.21.26 5.33l.13 1.82.13 3.58q0 1.23-.2 3.77l-.13 3.64.91-.2q1.3-.39 2.15-.39.71 0 1.3.55.58.56.58 1.27 0 .78-.48 1.4-.49.62-1.21.62l-.78-.07h-.84q-.98 0-1.37.46v20.08l3.64-.19q3.71 0 3.71 1.69v.26q-.39.78-1.43 1.26-1.04.49-2.02.62l-2.14.07z" paint-order="stroke"></path><rect width="11.7" height="49.6" x="-5.85" y="-24.8" fill="none" rx="0" ry="0" transform="translate(77.86 -20.98)"></rect><path fill="#9c9c9c" d="M94.58 3.705q-.65 0-1.13-.46-.49-.45-.49-1.1l.13-6.31q.19-4.22.19-6.3 0-1.89-.58-5.59-.65-3.64-.65-5.66 0-2.47-.72-5.65-.71-3.19-1.82-6.11-1.04-2.8-1.75-6.02-.72-3.21-.72-5.62 0-.45.52-.78.52-.32 1.11-.32.71 0 1.36 1.49.78 1.69 1.5 4.75.71 3.05.84 3.64l.85 4.48.65 2.86q.19-1.04.32-2.73.39-5.39.98-8.97.45-2.47 1.04-3.77.65-1.43 1.56-1.43 1.75 0 1.75.65 0 3.71-1.56 10.92-1.56 7.22-1.56 10.99l-.13 1.04q-.13.97-.06 1.17v1.04q0 2.79.19 8.58l.13 8.64.13 1.5.13 1.56v1.62q0 .78-.65 1.33-.65.56-1.56.56" paint-order="stroke"></path><rect width="12.48" height="49.92" x="-6.24" y="-24.96" fill="none" rx="0" ry="0" transform="translate(93.78 -20.75)"></rect><path fill="#9c9c9c" d="M110.9 4.355q-2.34 0-4.03-.85-1.04-.58-1.04-1.36 0-.78.39-1.27t1.1-.49q.65 0 1.89.52 1.36.52 1.69.52 1.23 0 2.24-1.07 1.01-1.07 1.59-2.83 1.17-3.25 1.17-5.85 0-2.79-.87-5.88-.88-3.09-2.38-6.01l-1.04-2.08q-1.62-3.25-2.5-5.14-.88-1.88-1.53-4.09-.97-3.12-.97-6.05 0-2.34.81-4.42t2.44-3.51q1.62-1.56 4.03-1.56 1.17 0 2.27.68 1.11.69 1.56 1.73l-1.1 1.36q-1.69 0-2.54-.65-1.17.13-2.04 1.14-.88 1.01-1.34 2.31-.39 1.23-.39 2.47 0 2.47.69 5.03.68 2.57 1.78 4.85l4.55 9.1q1.11 2.34 1.76 5.26.65 2.93.65 5.85 0 4.29-2.08 8.06-1.11 1.95-2.86 3.09-1.76 1.14-3.9 1.14" paint-order="stroke"></path><rect width="13.91" height="51.42" x="-6.96" y="-25.71" fill="none" rx="0" ry="0" transform="translate(113.28 -20.86)"></rect><path fill="#9c9c9c" d="M-77.75 46.225q-.47 0-.75-.41t-.28-1.01l.09-7.22q.13-5.25.13-8.13 0-10.02-1.12-15.35.64-.99 1.63-.99 1.59 0 2.91.71 1.31.71 2.17 1.91 1.67 2.5 1.67 5.59 0 3.23-1.37 5.77-1.38 2.53-4 3.95l.08 4.35.09 2.27q.04.74.04 2.11.13 2.88.13 4.69 0 .82-.34 1.29-.35.47-1.08.47m.99-17.24q1.68-1.59 2.48-3.33.79-1.75.79-3.94v-.04q0-.99-.21-2.5-.13-.51-.48-1.03-.34-.51-.38-.6-.31-.43-1.6-1.33l-1.11-.82q0 2.19.25 6.79z" paint-order="stroke"></path><rect width="8.38" height="33.11" x="-4.19" y="-16.55" fill="none" rx="0" ry="0" transform="translate(-74.99 30.17)"></rect><path fill="#9c9c9c" d="M-64.12 45.965q-3.69 0-3.69-1.29 0-1.03 1.29-1.03h.51q.17.04.39.04.34 0 .49-.21.15-.22.15-.77 0-3.66-.43-9.98-.38-6.58-.38-9.93 0-1.21.04-2.2l.04-2.19q0-1.42-.13-2.36-.47.17-.98.17-.99 0-.99-1.03 0-.52.62-.91.62-.38 1.61-.56 1.81-.3 3.06-.3.51 0 .88.35.36.34.36.81 0 .48-.28.82-.28.34-.71.34-.25 0-.43-.04h-.34q-.43 0-.62.2-.2.19-.2.7 0 4.56.56 12.56.52 8.39.52 12.6v1.63q.3-.04.86-.04 1.8 0 1.8 1.51v.25l-1.07.73q-.04 0-.26.03-.21.02-.86.02-1.46.08-1.81.08" paint-order="stroke"></path><rect width="7.69" height="32.55" x="-3.85" y="-16.27" fill="none" rx="0" ry="0" transform="translate(-63.47 30.19)"></rect><path fill="#9c9c9c" d="M-47.26 46.015q-.69 0-1.01-.26-.32-.26-.32-.86v-5.63q-.56-.39-2.11-.69-1.55-.3-2.92-.39-.48.9-.69 2.19l-.17.86q-.05.3-.26 1.34-.22 1.03-.47 1.78-.26.75-.52 1.18-1.63 0-1.89-.86.47-.68 1.07-4.04l1.42-7.87q.95-5.59 1.74-9.54.8-3.96 1.7-6.63.99-2.96 1.89-2.96.91 0 1.38.34 0 1.72.82 8.3.86 6.45.86 8.82 0 2.27.47 6.53.43 4.34.43 6.92 0 1.47-1.42 1.47m-2.24-9.25q.35 0 .86-.13-.12-1.89-.43-4.68-.98-9.72-.98-11.92v-.34q-.43.43-1.19 3.89-.75 3.46-1.39 7.42-.65 3.96-.69 5.25 1.8.51 3.82.51" paint-order="stroke"></path><rect width="11.78" height="32.38" x="-5.89" y="-16.19" fill="none" rx="0" ry="0" transform="translate(-51.23 30.32)"></rect><path fill="#9c9c9c" d="M-30.1 46.655q-.86 0-3.53-8.86-3.01-10.36-5.2-19.05v14.11q0 1.8.34 6.15.3 4.73.3 6.1 0 .39-.47.67t-1.07.28q-.91 0-.91-.69l.09-1.25q.08-1.37.08-1.8 0-2.28-.25-7.23-.26-5.03-.26-6.1v-5.51q0-1.33.13-3.95.17-2.28.17-3.96v-.26q0-2.15.95-2.15.55 0 1.41 1.9 1.42 3.09 3.62 11.09 1.24 4.64 2.92 11.95l.69 2.97.04.22q0-4.17.09-7.49l.08-7.48v-12.73q.18-1.07 1.38-1.07 1.16 0 1.16 1.68v.25q-.26.52-.26 1.25 0 2.62-.13 7.91-.13 5.34-.13 8v13.12q0 .68-.36 1.31-.37.62-.88.62" paint-order="stroke"></path><rect width="12.64" height="34.14" x="-6.32" y="-17.07" fill="none" rx="0" ry="0" transform="translate(-34.16 30.09)"></rect><path fill="#9c9c9c" d="M-17.37 47.215q-1.17 0-2.11-.77-.95-.78-1.64-2.11-1.24-2.32-1.84-6.36-.43-2.8-.65-6.45l-.04-2.28v-2.33q-.05-1.11-.05-2.7 0-2.58.22-4.56.17-2.07.86-4.09.69-1.76 1.98-2.49.77-.35 1.55-.35 2.27 0 3.61 1.81 1.46 2.02 1.93 4.52.69 3.01.78 5.76.17 3.05.17 5.76v2.45q0 .73-.22 2.75-.17 1.59-.17 2.71v.17q-.26 1.21-.26 2.84 0 1.21-.51 2.5-.52 1.29-1.46 2.19-.95 1.03-2.15 1.03m.08-2.36q.86 0 1.46-1.6.52-1.41.76-3.46.23-2.04.4-4.62.09-1.12.09-2.88l-.04-3.96q-.09-2.32-.52-5.8-.34-2.97-1.29-5.25-.43-1.07-1.07-1.67-.65-.61-1.38-.61-1.07 0-1.59 1.68-.65 1.76-.86 3.87-.26 2.28-.3 4.34l-.04 1.42q-.05.6-.05 1.64v.17q0 2.88.6 7.09.69 5.72 2.03 8.13.86 1.51 1.8 1.51" paint-order="stroke"></path><rect width="11.1" height="34.49" x="-5.55" y="-17.25" fill="none" rx="0" ry="0" transform="translate(-17.65 30.47)"></rect><path fill="#9c9c9c" d="M2.58 46.955q-1.55 0-2.67-.56-.69-.38-.69-.9t.26-.84q.26-.32.73-.32.43 0 1.25.34.9.35 1.12.35.81 0 1.48-.71.67-.71 1.05-1.87.78-2.15.78-3.87 0-1.85-.58-3.89-.58-2.05-1.57-3.98l-.69-1.38q-1.07-2.15-1.65-3.39-.59-1.25-1.02-2.71-.64-2.07-.64-4 0-1.55.54-2.93.53-1.37 1.61-2.32 1.07-1.03 2.67-1.03.77 0 1.5.45t1.03 1.14l-.73.9q-1.12 0-1.68-.43-.77.09-1.35.76-.58.66-.88 1.52-.26.82-.26 1.64 0 1.63.45 3.33.45 1.7 1.18 3.2l3.01 6.02q.74 1.55 1.17 3.49.43 1.93.43 3.87 0 2.83-1.38 5.33-.73 1.29-1.89 2.04t-2.58.75" paint-order="stroke"></path><rect width="9.21" height="34.01" x="-4.61" y="-17" fill="none" rx="0" ry="0" transform="translate(4.33 30.45)"></rect><path fill="#9c9c9c" d="M16.55 46.315q-.64 0-1.01-.63-.36-.62-.36-1.52 0-1.42.17-3.49l.08-1.11.09-2.28q0-1.51-.3-6.71t-.3-6.71q0-.13.02-.49.02-.37.02-1.14.04-.86.04-2.11 0-3.14-.43-4-.25 0-1.11.13l-1.21.09q-.56 0-.99-.33-.43-.32-.43-.83 0-.52 1.04-.91 1.5-.51 5.11-.73 1.46-.08 1.77-.08.51 0 .94.34.43.34.43.86t-.36.84q-.37.32-.93.32l-.77-.04q-.35-.05-.78-.05h-.43q.3 2.93.3 5.29l-.04 2.76q-.04 1.24-.04 2.79 0 2.06.17 4.95.22 3.56.22 4.94 0 1.63.17 3.87.17 2.28.17 3.87 0 2.11-1.25 2.11" paint-order="stroke"></path><rect width="9.29" height="32.85" x="-4.64" y="-16.43" fill="none" rx="0" ry="0" transform="translate(15.97 30.39)"></rect><path fill="#9c9c9c" d="M32.08 46.785q-2.67 0-4.22-2.32-1.68-2.37-2.36-5.81-.78-3.65-.99-7.82-.22-3.79-.22-8.22v-3.56q.05-1.51.05-3.19-.35-.34-.35-.86 0-.51.39-.92.39-.41.86-.41 1.55 0 1.55 3.05 0 1.98.21 7.49.22 5.5.22 7.48.21.56.41 2.23.19 1.68.19 2.76 0 .94.3 2.34t.86 2.82q.56 1.5 1.46 2.47.9.97 1.89.97.61 0 1.01-.39.41-.39.54-1.12.26-1.2.26-2.36v-8.39q0-1.59-.3-4.04-.26-2.71-.26-4.09v-.3q0-.69-.04-1.24l-.05-1.25q0-1.21-.12-3.66-.18-2.19-.18-3.69 0-.48.5-.82.49-.35 1.09-.35l1.08.99v.73q0 .52-.17 1.25-.17 1.21-.17 1.38 0 3.91.43 10.79.38 7.22.38 11.22 0 2.15-.43 3.79-.26.99-.71 1.59-.45.6-1.22 1.03-.73.43-1.89.43" paint-order="stroke"></path><rect width="12.34" height="33.2" x="-6.17" y="-16.6" fill="none" rx="0" ry="0" transform="translate(30.66 30.68)"></rect><path fill="#9c9c9c" d="M44.03 46.095q-.86 0-1.48-.38-.63-.39-.63-1.08.95-.95.95-5.03 0-2.45-.39-7.14-.43-4.47-.43-7.05l.09-2.37q.04-1.03.04-2.36 0-1.2-.43-3.05-.52-1.94-.52-2.71 0-1.51 3.32-1.51h.64q2.32 0 4.04 1.42 1.38 1.21 2.32 3.48.65 1.55 1.12 4.3.26 2.41.26 3.79v3.4q-.09.17-.09.34 0 .34.05.52.04.17.04.43 0 1.37-.41 3.29-.41 1.91-1.18 3.89-1.94 4.73-4.34 6.7-1.42 1.12-2.97 1.12m.9-2.49q1.59-.99 2.8-2.86 1.2-1.87 1.85-4.15 1.16-4.21 1.16-8.51 0-2.33-.43-5.08-.48-2.66-2.02-4.81-.73-1.04-1.85-1.62-1.12-.58-2.54-.58v.05q0 3.87.52 11.69.51 7.78.51 11.78z" paint-order="stroke"></path><rect width="11.7" height="32.68" x="-5.85" y="-16.34" fill="none" rx="0" ry="0" transform="translate(47.58 30.25)"></rect><path fill="#9c9c9c" d="M60.84 45.965q-3.7 0-3.7-1.29 0-1.03 1.29-1.03h.52q.17.04.39.04.34 0 .49-.21.15-.22.15-.77 0-3.66-.43-9.98-.38-6.58-.38-9.93 0-1.21.04-2.2l.04-2.19q0-1.42-.13-2.36-.47.17-.99.17-.99 0-.99-1.03 0-.52.63-.91.62-.38 1.61-.56 1.81-.3 3.05-.3.52 0 .89.35.36.34.36.81 0 .48-.28.82-.28.34-.71.34-.26 0-.43-.04h-.34q-.43 0-.63.2-.19.19-.19.7 0 4.56.56 12.56.52 8.39.52 12.6v1.63q.3-.04.86-.04 1.8 0 1.8 1.51v.25l-1.07.73q-.05 0-.26.03-.22.02-.86.02-1.46.08-1.81.08" paint-order="stroke"></path><rect width="7.7" height="32.55" x="-3.85" y="-16.27" fill="none" rx="0" ry="0" transform="translate(61.49 30.19)"></rect><path fill="#9c9c9c" d="M74.82 47.215q-1.16 0-2.11-.77-.95-.78-1.63-2.11-1.25-2.32-1.85-6.36-.43-2.8-.65-6.45l-.04-2.28v-2.33q-.04-1.11-.04-2.7 0-2.58.21-4.56.17-2.07.86-4.09.69-1.76 1.98-2.49.77-.35 1.55-.35 2.28 0 3.61 1.81 1.46 2.02 1.93 4.52.69 3.01.78 5.76.17 3.05.17 5.76v2.45q0 .73-.21 2.75-.18 1.59-.18 2.71v.17q-.25 1.21-.25 2.84 0 1.21-.52 2.5t-1.46 2.19q-.95 1.03-2.15 1.03m.08-2.36q.86 0 1.47-1.6.51-1.41.75-3.46.23-2.04.41-4.62.08-1.12.08-2.88l-.04-3.96q-.09-2.32-.52-5.8-.34-2.97-1.29-5.25-.43-1.07-1.07-1.67-.65-.61-1.38-.61-1.07 0-1.59 1.68-.64 1.76-.86 3.87-.26 2.28-.3 4.34l-.04 1.42q-.05.6-.05 1.64v.17q0 2.88.61 7.09.68 5.72 2.02 8.13.86 1.51 1.8 1.51" paint-order="stroke"></path><rect width="11.09" height="34.49" x="-5.54" y="-17.25" fill="none" rx="0" ry="0" transform="translate(74.55 30.47)"></rect></g></g><g transform="translate(68.91 52.94)scale(1.3866)"><linearGradient id="b" x1="0" x2="1" y1="0" y2="0" gradientUnits="objectBoundingBox"><stop offset="0%" stop-color="#151515"></stop><stop offset="100%" stop-color="#505050"></stop></linearGradient><path fill="url(#b)" d="M93.04 75a.268.268 0 0 0-.08 0h-90a2 2 0 0 1-2-2V27c0-14.336 11.888-26 26.5-26 14.876 0 24.008 13.38 26.468 26.636 2.1 11.368 10.268 14.372 18.916 17.556 10.264 3.776 21.884 8.052 22.108 27.244A1.992 1.992 0 0 1 93.04 75M4.96 71h85.956c-.7-15.152-9.416-18.364-19.448-22.056-8.884-3.268-18.956-6.976-21.476-20.584C47.836 16.732 40.036 4.996 27.46 4.996c-12.196 0-22.5 10.076-22.5 22z" transform="translate(-48 -38)"></path></g><g transform="translate(67.47 115.34)scale(1.3866)"><linearGradient id="c" x1="0" x2="1" y1="0" y2="0" gradientUnits="objectBoundingBox"><stop offset="0%" stop-color="#151515"></stop><stop offset="100%" stop-color="#505050"></stop></linearGradient><path fill="url(#c)" d="M86.96 95h-80a2 2 0 0 1-2-2V73a2 2 0 0 1 2-2h80c1.1 0 2 .896 2 2v20a2 2 0 0 1-2 2m-78-4h76V75h-76z" transform="translate(-46.96 -83)"></path></g><g transform="translate(34.2 109.8)scale(1.3866)"><linearGradient id="d" x1="0" x2="1" y1="0" y2="0" gradientUnits="objectBoundingBox"><stop offset="0%" stop-color="#151515"></stop><stop offset="100%" stop-color="#505050"></stop></linearGradient><path fill="url(#d)" d="M22.96 85a2 2 0 0 1-2-2v-8a2 2 0 0 1 4 0v8a2 2 0 0 1-2 2" transform="translate(-22.96 -79)"></path></g><g transform="translate(50.83 109.8)scale(1.3866)"><linearGradient id="e" x1="0" x2="1" y1="0" y2="0" gradientUnits="objectBoundingBox"><stop offset="0%" stop-color="#151515"></stop><stop offset="100%" stop-color="#505050"></stop></linearGradient><path fill="url(#e)" d="M34.96 85a2 2 0 0 1-2-2v-8a2 2 0 0 1 4 0v8a2 2 0 0 1-2 2" transform="translate(-34.96 -79)"></path></g><g transform="translate(67.47 109.8)scale(1.3866)"><linearGradient id="f" x1="0" x2="1" y1="0" y2="0" gradientUnits="objectBoundingBox"><stop offset="0%" stop-color="#151515"></stop><stop offset="100%" stop-color="#505050"></stop></linearGradient><path fill="url(#f)" d="M46.96 85a2 2 0 0 1-2-2v-8a2 2 0 0 1 4 0v8a2 2 0 0 1-2 2" transform="translate(-46.96 -79)"></path></g><g transform="translate(84.11 109.8)scale(1.3866)"><linearGradient id="g" x1="0" x2="1" y1="0" y2="0" gradientUnits="objectBoundingBox"><stop offset="0%" stop-color="#151515"></stop><stop offset="100%" stop-color="#505050"></stop></linearGradient><path fill="url(#g)" d="M58.96 85a2 2 0 0 1-2-2v-8a2 2 0 0 1 4 0v8a2 2 0 0 1-2 2" transform="translate(-58.96 -79)"></path></g><g transform="translate(100.75 109.8)scale(1.3866)"><linearGradient id="h" x1="0" x2="1" y1="0" y2="0" gradientUnits="objectBoundingBox"><stop offset="0%" stop-color="#151515"></stop><stop offset="100%" stop-color="#505050"></stop></linearGradient><path fill="url(#h)" d="M70.96 85a2 2 0 0 1-2-2v-8a2 2 0 0 1 4 0v8a2 2 0 0 1-2 2" transform="translate(-70.96 -79)"></path></g></svg></svg>